<svg width="24" height="25" viewBox="0 0 24 25" fill="none" xmlns="http://www.w3.org/2000/svg">
<path d="M18.2199 21.25H5.77994C5.43316 21.2359 5.09256 21.1535 4.77765 21.0075C4.46274 20.8616 4.17969 20.655 3.9447 20.3996C3.70971 20.1442 3.52739 19.8449 3.40818 19.519C3.28896 19.193 3.23519 18.8468 3.24994 18.5V15.5C3.24994 15.3011 3.32896 15.1103 3.46961 14.9697C3.61027 14.829 3.80103 14.75 3.99994 14.75C4.19886 14.75 4.38962 14.829 4.53027 14.9697C4.67093 15.1103 4.74994 15.3011 4.74994 15.5V18.5C4.72412 18.7969 4.81359 19.0924 4.99977 19.3251C5.18596 19.5579 5.45459 19.71 5.74994 19.75H18.2199C18.5153 19.71 18.7839 19.5579 18.9701 19.3251C19.1563 19.0924 19.2458 18.7969 19.2199 18.5V15.5C19.2199 15.3011 19.299 15.1103 19.4396 14.9697C19.5803 14.829 19.771 14.75 19.9699 14.75C20.1689 14.75 20.3596 14.829 20.5003 14.9697C20.6409 15.1103 20.7199 15.3011 20.7199 15.5V18.5C20.7499 19.1954 20.504 19.8744 20.0358 20.3894C19.5676 20.9045 18.915 21.2137 18.2199 21.25Z" fill="#111111" fill-opacity="0.882353"/>
<path d="M11.9999 16.25C11.9014 16.2505 11.8038 16.2312 11.7128 16.1935C11.6217 16.1557 11.5392 16.1001 11.4699 16.03L7.46994 12.03C7.33746 11.8878 7.26534 11.6998 7.26877 11.5055C7.2722 11.3112 7.35091 11.1258 7.48832 10.9884C7.62573 10.851 7.81112 10.7723 8.00542 10.7688C8.19972 10.7654 8.38777 10.8375 8.52994 10.97L11.9999 14.44L15.4699 10.97C15.6121 10.8375 15.8002 10.7654 15.9945 10.7688C16.1888 10.7723 16.3742 10.851 16.5116 10.9884C16.649 11.1258 16.7277 11.3112 16.7311 11.5055C16.7345 11.6998 16.6624 11.8878 16.5299 12.03L12.5299 16.03C12.4607 16.1001 12.3781 16.1557 12.2871 16.1935C12.1961 16.2312 12.0985 16.2505 11.9999 16.25Z" fill="#111111" fill-opacity="0.882353"/>
<path d="M11.9999 16.25C11.8018 16.2474 11.6126 16.1676 11.4725 16.0275C11.3324 15.8874 11.2525 15.6981 11.2499 15.5V4.5C11.2499 4.30109 11.329 4.11032 11.4696 3.96967C11.6103 3.82902 11.801 3.75 11.9999 3.75C12.1989 3.75 12.3896 3.82902 12.5303 3.96967C12.6709 4.11032 12.7499 4.30109 12.7499 4.5V15.5C12.7474 15.6981 12.6675 15.8874 12.5274 16.0275C12.3873 16.1676 12.1981 16.2474 11.9999 16.25Z" fill="#111111" fill-opacity="0.882353"/>
</svg>
