<svg width="24" height="25" viewBox="0 0 24 25" fill="none" xmlns="http://www.w3.org/2000/svg">
<path d="M4.5 20.75C4.30189 20.7474 4.11263 20.6676 3.97253 20.5275C3.83244 20.3874 3.75259 20.1981 3.75 20V5C3.75 4.80109 3.82902 4.61032 3.96967 4.46967C4.11032 4.32902 4.30109 4.25 4.5 4.25C4.69891 4.25 4.88968 4.32902 5.03033 4.46967C5.17098 4.61032 5.25 4.80109 5.25 5V20C5.24741 20.1981 5.16756 20.3874 5.02747 20.5275C4.88737 20.6676 4.69811 20.7474 4.5 20.75Z" fill="#111111" fill-opacity="0.882353"/>
<path d="M19.5 20.75H4.5C4.30109 20.75 4.11032 20.671 3.96967 20.5303C3.82902 20.3897 3.75 20.1989 3.75 20C3.75 19.8011 3.82902 19.6103 3.96967 19.4697C4.11032 19.329 4.30109 19.25 4.5 19.25H19.5C19.6989 19.25 19.8897 19.329 20.0303 19.4697C20.171 19.6103 20.25 19.8011 20.25 20C20.25 20.1989 20.171 20.3897 20.0303 20.5303C19.8897 20.671 19.6989 20.75 19.5 20.75Z" fill="#111111" fill-opacity="0.882353"/>
<path d="M8 17.25C7.80189 17.2474 7.61263 17.1676 7.47253 17.0275C7.33244 16.8874 7.25259 16.6981 7.25 16.5V12.5C7.25 12.3011 7.32902 12.1103 7.46967 11.9697C7.61032 11.829 7.80109 11.75 8 11.75C8.19891 11.75 8.38968 11.829 8.53033 11.9697C8.67098 12.1103 8.75 12.3011 8.75 12.5V16.5C8.74741 16.6981 8.66756 16.8874 8.52747 17.0275C8.38737 17.1676 8.19811 17.2474 8 17.25Z" fill="#111111" fill-opacity="0.882353"/>
<path d="M11.5 17.25C11.3019 17.2474 11.1126 17.1676 10.9725 17.0275C10.8324 16.8874 10.7526 16.6981 10.75 16.5V8.5C10.75 8.30109 10.829 8.11032 10.9697 7.96967C11.1103 7.82902 11.3011 7.75 11.5 7.75C11.6989 7.75 11.8897 7.82902 12.0303 7.96967C12.171 8.11032 12.25 8.30109 12.25 8.5V16.5C12.2474 16.6981 12.1676 16.8874 12.0275 17.0275C11.8874 17.1676 11.6981 17.2474 11.5 17.25Z" fill="#111111" fill-opacity="0.882353"/>
<path d="M15 17.25C14.8019 17.2474 14.6126 17.1676 14.4725 17.0275C14.3324 16.8874 14.2526 16.6981 14.25 16.5V12.5C14.25 12.3011 14.329 12.1103 14.4697 11.9697C14.6103 11.829 14.8011 11.75 15 11.75C15.1989 11.75 15.3897 11.829 15.5303 11.9697C15.671 12.1103 15.75 12.3011 15.75 12.5V16.5C15.7474 16.6981 15.6676 16.8874 15.5275 17.0275C15.3874 17.1676 15.1981 17.2474 15 17.25Z" fill="#111111" fill-opacity="0.882353"/>
<path d="M18.5 17.25C18.3019 17.2474 18.1126 17.1676 17.9725 17.0275C17.8324 16.8874 17.7526 16.6981 17.75 16.5V8.5C17.75 8.30109 17.829 8.11032 17.9697 7.96967C18.1103 7.82902 18.3011 7.75 18.5 7.75C18.6989 7.75 18.8897 7.82902 19.0303 7.96967C19.171 8.11032 19.25 8.30109 19.25 8.5V16.5C19.2474 16.6981 19.1676 16.8874 19.0275 17.0275C18.8874 17.1676 18.6981 17.2474 18.5 17.25Z" fill="#111111" fill-opacity="0.882353"/>
</svg>
