<svg width="24" height="25" viewBox="0 0 24 25" fill="none" xmlns="http://www.w3.org/2000/svg">
<path d="M18 4.75H6C5.27065 4.75 4.57118 5.03973 4.05546 5.55546C3.53973 6.07118 3.25 6.77065 3.25 7.5V17.5C3.25 18.2293 3.53973 18.9288 4.05546 19.4445C4.57118 19.9603 5.27065 20.25 6 20.25H18C18.7293 20.25 19.4288 19.9603 19.9445 19.4445C20.4603 18.9288 20.75 18.2293 20.75 17.5V7.5C20.75 6.77065 20.4603 6.07118 19.9445 5.55546C19.4288 5.03973 18.7293 4.75 18 4.75ZM19.25 7.5V11.75H12.75V6.25H18C18.3315 6.25 18.6495 6.3817 18.8839 6.61612C19.1183 6.85054 19.25 7.16848 19.25 7.5ZM6 6.25H11.25V11.75H4.75V7.5C4.75 7.16848 4.8817 6.85054 5.11612 6.61612C5.35054 6.3817 5.66848 6.25 6 6.25ZM4.75 17.5V13.25H11.25V18.75H6C5.66848 18.75 5.35054 18.6183 5.11612 18.3839C4.8817 18.1495 4.75 17.8315 4.75 17.5ZM18 18.75H12.75V13.25H19.25V17.5C19.25 17.8315 19.1183 18.1495 18.8839 18.3839C18.6495 18.6183 18.3315 18.75 18 18.75Z" fill="#111111" fill-opacity="0.882353"/>
</svg>
