<svg width="18" height="19" viewBox="0 0 18 19" fill="none" xmlns="http://www.w3.org/2000/svg">
<path d="M9 18.5C7.21997 18.5 5.47991 17.9722 3.99987 16.9832C2.51983 15.9943 1.36628 14.5887 0.685088 12.9442C0.00389951 11.2996 -0.17433 9.49002 0.172937 7.74419C0.520203 5.99836 1.37737 4.39472 2.63604 3.13604C3.89472 1.87737 5.49836 1.0202 7.24419 0.672937C8.99002 0.32567 10.7996 0.5039 12.4442 1.18509C14.0887 1.86628 15.4943 3.01983 16.4832 4.49987C17.4722 5.97991 18 7.71997 18 9.5C18 11.887 17.0518 14.1761 15.364 15.864C13.6761 17.5518 11.387 18.5 9 18.5ZM9 2C7.51664 2 6.0666 2.43987 4.83323 3.26398C3.59986 4.08809 2.63856 5.25943 2.07091 6.62988C1.50325 8.00032 1.35473 9.50832 1.64411 10.9632C1.9335 12.418 2.64781 13.7544 3.6967 14.8033C4.7456 15.8522 6.08197 16.5665 7.53683 16.8559C8.99168 17.1453 10.4997 16.9968 11.8701 16.4291C13.2406 15.8614 14.4119 14.9001 15.236 13.6668C16.0601 12.4334 16.5 10.9834 16.5 9.5C16.5 7.51088 15.7098 5.60323 14.3033 4.1967C12.8968 2.79018 10.9891 2 9 2Z" fill="#111111" fill-opacity="0.882353"/>
</svg>
