<svg width="24" height="25" viewBox="0 0 24 25" fill="none" xmlns="http://www.w3.org/2000/svg">
<path d="M12 13.25C11.2583 13.25 10.5333 13.0301 9.91661 12.618C9.29993 12.206 8.81928 11.6203 8.53545 10.9351C8.25162 10.2498 8.17736 9.49584 8.32205 8.76841C8.46675 8.04098 8.8239 7.3728 9.34835 6.84835C9.8728 6.3239 10.541 5.96675 11.2684 5.82206C11.9958 5.67736 12.7498 5.75162 13.4351 6.03545C14.1203 6.31928 14.706 6.79993 15.118 7.41661C15.5301 8.0333 15.75 8.75832 15.75 9.5C15.75 10.4946 15.3549 11.4484 14.6517 12.1517C13.9484 12.8549 12.9946 13.25 12 13.25ZM12 7.25C11.555 7.25 11.12 7.38196 10.75 7.62919C10.38 7.87643 10.0916 8.22783 9.92127 8.63896C9.75097 9.0501 9.70642 9.5025 9.79323 9.93895C9.88005 10.3754 10.0943 10.7763 10.409 11.091C10.7237 11.4057 11.1246 11.62 11.561 11.7068C11.9975 11.7936 12.4499 11.749 12.861 11.5787C13.2722 11.4084 13.6236 11.12 13.8708 10.75C14.118 10.38 14.25 9.94501 14.25 9.5C14.25 8.90326 14.0129 8.33097 13.591 7.90901C13.169 7.48705 12.5967 7.25 12 7.25Z" fill="#111111" fill-opacity="0.882353"/>
<path d="M19 20.25C18.8019 20.2474 18.6126 20.1676 18.4725 20.0275C18.3324 19.8874 18.2526 19.6981 18.25 19.5C18.25 17.55 17.19 16.25 12 16.25C6.81 16.25 5.75 17.55 5.75 19.5C5.75 19.6989 5.67098 19.8897 5.53033 20.0303C5.38968 20.171 5.19891 20.25 5 20.25C4.80109 20.25 4.61032 20.171 4.46967 20.0303C4.32902 19.8897 4.25 19.6989 4.25 19.5C4.25 14.75 9.68 14.75 12 14.75C14.32 14.75 19.75 14.75 19.75 19.5C19.7474 19.6981 19.6676 19.8874 19.5275 20.0275C19.3874 20.1676 19.1981 20.2474 19 20.25Z" fill="#111111" fill-opacity="0.882353"/>
<path d="M19 15C18.8019 14.9974 18.6126 14.9176 18.4725 14.7775C18.3324 14.6374 18.2526 14.4481 18.25 14.25V10.75C18.25 10.5511 18.329 10.3603 18.4697 10.2197C18.6103 10.079 18.8011 10 19 10C19.1989 10 19.3897 10.079 19.5303 10.2197C19.671 10.3603 19.75 10.5511 19.75 10.75V14.25C19.7474 14.4481 19.6676 14.6374 19.5275 14.7775C19.3874 14.9176 19.1981 14.9974 19 15Z" fill="#111111" fill-opacity="0.882353"/>
<path d="M20.75 13.25H17.25C17.0511 13.25 16.8603 13.171 16.7197 13.0303C16.579 12.8897 16.5 12.6989 16.5 12.5C16.5 12.3011 16.579 12.1103 16.7197 11.9697C16.8603 11.829 17.0511 11.75 17.25 11.75H20.75C20.9489 11.75 21.1397 11.829 21.2803 11.9697C21.421 12.1103 21.5 12.3011 21.5 12.5C21.5 12.6989 21.421 12.8897 21.2803 13.0303C21.1397 13.171 20.9489 13.25 20.75 13.25Z" fill="#111111" fill-opacity="0.882353"/>
</svg>
