<svg width="24" height="25" viewBox="0 0 24 25" fill="none" xmlns="http://www.w3.org/2000/svg">
<path d="M10.5601 12.37C9.81838 12.37 9.09336 12.1501 8.47667 11.738C7.85999 11.326 7.37934 10.7403 7.09551 10.0551C6.81168 9.36984 6.73742 8.61584 6.88211 7.88841C7.02681 7.16098 7.38396 6.49279 7.90841 5.96835C8.43286 5.4439 9.10104 5.08675 9.82847 4.94205C10.5559 4.79736 11.3099 4.87162 11.9951 5.15545C12.6803 5.43928 13.266 5.91992 13.6781 6.53661C14.0901 7.15329 14.3101 7.87832 14.3101 8.62C14.3074 9.61375 13.9115 10.566 13.2088 11.2687C12.5061 11.9714 11.5538 12.3674 10.5601 12.37ZM10.5601 6.37C10.1151 6.37 9.68004 6.50196 9.31003 6.74919C8.94002 6.99642 8.65163 7.34783 8.48133 7.75896C8.31103 8.17009 8.26648 8.62249 8.35329 9.05895C8.44011 9.49541 8.6544 9.89632 8.96907 10.211C9.28374 10.5257 9.68465 10.7399 10.1211 10.8268C10.5576 10.9136 11.01 10.869 11.4211 10.6987C11.8322 10.5284 12.1836 10.24 12.4309 9.87003C12.6781 9.50002 12.8101 9.065 12.8101 8.62C12.8101 8.02326 12.573 7.45096 12.151 7.02901C11.7291 6.60705 11.1568 6.37 10.5601 6.37Z" fill="#111111" fill-opacity="0.882353"/>
<path d="M3.56006 19.37C3.36115 19.37 3.17038 19.291 3.02973 19.1503C2.88908 19.0097 2.81006 18.8189 2.81006 18.62C2.81006 13.87 8.24006 13.87 10.5601 13.87C11.2801 13.87 11.9201 13.87 12.5001 13.94C12.6973 13.9553 12.8806 14.048 13.0098 14.1979C13.1391 14.3477 13.2038 14.5426 13.1901 14.74C13.1722 14.9381 13.0774 15.1214 12.926 15.2504C12.7745 15.3794 12.5785 15.4439 12.3801 15.43C11.8401 15.43 11.2401 15.37 10.5601 15.37C5.38006 15.37 4.31006 16.67 4.31006 18.62C4.3114 18.7189 4.29292 18.817 4.25571 18.9086C4.21849 19.0002 4.1633 19.0834 4.09339 19.1533C4.02347 19.2232 3.94026 19.2784 3.84866 19.3156C3.75705 19.3529 3.65892 19.3713 3.56006 19.37Z" fill="#111111" fill-opacity="0.882353"/>
<path d="M12.6701 20.13C12.4712 20.1298 12.2806 20.0507 12.1401 19.91C12.0611 19.8347 12.0003 19.7425 11.9621 19.6403C11.924 19.5381 11.9096 19.4286 11.9201 19.32L12.0801 17.4C12.0924 17.2235 12.1668 17.057 12.2901 16.93L17.8101 11.41C18.1909 11.0572 18.6909 10.8612 19.2101 10.8612C19.7292 10.8612 20.2292 11.0572 20.6101 11.41C20.7978 11.5992 20.9459 11.8241 21.0455 12.0714C21.1451 12.3187 21.1942 12.5834 21.1901 12.85C21.194 13.0957 21.1491 13.3398 21.0582 13.568C20.9672 13.7963 20.8319 14.0043 20.6601 14.18L15.1401 19.7C15.0176 19.8255 14.8546 19.9035 14.6801 19.92L12.7401 20.1L12.6701 20.13ZM13.5501 17.79L13.4901 18.55L14.2701 18.48L19.6001 13.15C19.663 13.0745 19.6951 12.9781 19.6901 12.88C19.6897 12.7408 19.6401 12.6062 19.5501 12.5C19.4518 12.4269 19.3325 12.3875 19.2101 12.3875C19.0876 12.3875 18.9684 12.4269 18.8701 12.5L13.5501 17.79Z" fill="#111111" fill-opacity="0.882353"/>
</svg>
