<svg width="53" height="34" viewBox="0 0 53 34" fill="none" xmlns="http://www.w3.org/2000/svg">
<path d="M32.3319 27.2435C32.0354 27.2435 31.7812 27.1376 31.5674 26.9658L31.7711 26.682C31.9345 26.8279 32.1484 26.9198 32.3118 26.9198C32.5619 26.9198 32.6789 26.8039 32.6789 26.6161C32.6789 26.2025 31.6783 26.3084 31.6783 25.671C31.6783 25.3373 31.9547 25.0396 32.4086 25.0396C32.6325 25.0396 32.8686 25.1355 33.032 25.2414L32.8524 25.5391C32.7152 25.4432 32.566 25.3613 32.3925 25.3613C32.1484 25.3613 32.0455 25.4831 32.0455 25.635C32.0455 25.9947 33.04 25.9187 33.04 26.5761C33.04 26.9238 32.7556 27.2435 32.3319 27.2435Z" fill="#DE1388"/>
<path d="M33.6033 24.8056L33.4863 24.5838L34.38 23.9524L34.5797 24.356L33.6033 24.8056ZM33.5731 27.2014V25.0774H33.9765V27.2014H33.5731Z" fill="#DE1388"/>
<path d="M36.1041 27.2013V25.8666C36.1041 25.5389 35.981 25.371 35.6704 25.371C35.4303 25.371 35.1802 25.5369 35.0167 25.7147V27.2013H34.6133V25.0773H34.9966V25.401C35.2205 25.1792 35.5009 25.0374 35.7874 25.0374C36.2816 25.0374 36.5076 25.3351 36.5076 25.7607V27.2013H36.1041Z" fill="#DE1388"/>
<path d="M38.7328 27.2014V26.9836C38.5654 27.1555 38.3193 27.2414 38.0489 27.2414C37.4316 27.2414 37.002 26.7958 37.002 26.1604C37.002 25.539 37.4922 25.0374 38.059 25.0374C38.3394 25.0374 38.5492 25.1194 38.7126 25.2492V23.4949H39.1161V27.1994H38.7328V27.2014ZM38.7126 25.6609C38.5795 25.499 38.3657 25.3731 38.0893 25.3731C37.6858 25.3731 37.3994 25.6968 37.3994 26.1524C37.3994 26.578 37.6657 26.9097 38.1135 26.9097C38.3737 26.9097 38.5674 26.7978 38.7106 26.632V25.6609H38.7126Z" fill="#DE1388"/>
<path d="M40.1173 25.7507V27.2013H39.7139V25.0773H40.0972V25.431C40.3009 25.1672 40.5813 25.0374 40.8617 25.0374V25.427C40.5511 25.427 40.2646 25.5389 40.1173 25.7507Z" fill="#DE1388"/>
<path d="M42.2045 27.2435C41.5509 27.2435 41.1172 26.748 41.1172 26.1425C41.1172 25.5351 41.5509 25.0396 42.2045 25.0396C42.8581 25.0396 43.2858 25.5351 43.2858 26.1425C43.2858 26.748 42.8561 27.2435 42.2045 27.2435ZM42.2045 25.3632C41.791 25.3632 41.5146 25.677 41.5146 26.1425C41.5146 26.6081 41.791 26.9218 42.2045 26.9218C42.612 26.9218 42.8884 26.6081 42.8884 26.1425C42.8884 25.675 42.612 25.3632 42.2045 25.3632Z" fill="#DE1388"/>
<path d="M46.6755 27.2014V25.8407C46.6755 25.5469 46.5686 25.3811 46.2882 25.3811C46.0481 25.3811 45.8343 25.5229 45.6446 25.7188V27.1994H45.2412V25.8646C45.2412 25.5369 45.1443 25.3691 44.8377 25.3691C44.5815 25.3691 44.3576 25.5409 44.2042 25.7288V27.1994H43.8008V25.0754H44.1841V25.3991C44.3979 25.1973 44.6642 25.0354 44.9749 25.0354C45.3118 25.0354 45.4651 25.2012 45.5559 25.429C45.7657 25.1913 46.0763 25.0454 46.4092 25.0454C46.8591 25.0454 47.0769 25.3191 47.0769 25.7687V27.1994H46.6755V27.2014Z" fill="#DE1388"/>
<path d="M49.5401 26.2624H47.9686C48.015 26.6261 48.2188 26.8998 48.7695 26.8998C48.9491 26.8998 49.1629 26.8499 49.3606 26.7839L49.4312 27.1216C49.1871 27.1916 48.9309 27.2435 48.7312 27.2435C47.9606 27.2435 47.5732 26.764 47.5732 26.1525C47.5732 25.5711 47.9505 25.0396 48.6142 25.0396C49.2214 25.0396 49.5543 25.4851 49.5543 26.0606C49.5543 26.1305 49.5543 26.1865 49.5401 26.2624ZM49.1831 25.9587C49.1568 25.631 48.9692 25.3732 48.592 25.3732C48.245 25.3732 48.0312 25.595 47.9848 25.9587H49.1831Z" fill="#DE1388"/>
<path d="M32.7397 32.4385C32.5097 32.4385 32.2999 32.3826 32.1164 32.2827V33.4916H31.7129V30.2765H32.0962V30.4883C32.2697 30.3365 32.5097 30.2366 32.8164 30.2366C33.3832 30.2366 33.8271 30.6822 33.8271 31.3236C33.8271 31.943 33.3772 32.4385 32.7397 32.4385ZM32.7397 30.5683C32.4694 30.5683 32.2697 30.6642 32.1123 30.82V31.8671C32.2455 32.0189 32.4795 32.1088 32.7296 32.1088C33.1432 32.1088 33.4296 31.7811 33.4296 31.3256C33.4296 30.906 33.1634 30.5683 32.7397 30.5683Z" fill="#DE1388"/>
<path d="M34.7462 30.946V32.3967H34.3428V30.2726H34.7261V30.6263C34.9298 30.3625 35.2102 30.2327 35.4906 30.2327V30.6223C35.18 30.6223 34.8935 30.7342 34.7462 30.946Z" fill="#DE1388"/>
<path d="M37.1494 32.3966V32.1748C36.9759 32.3407 36.7519 32.4386 36.4857 32.4386C36.062 32.4386 35.709 32.1908 35.709 31.7552C35.709 31.3716 36.0398 31.0938 36.4796 31.0938C36.7761 31.0938 36.9436 31.1598 37.1272 31.2357V31.1098C37.1272 30.7501 36.9597 30.5843 36.5664 30.5843C36.3626 30.5843 36.1528 30.6303 36.0055 30.6902L35.939 30.3465C36.1387 30.2866 36.4029 30.2346 36.6168 30.2346C37.2301 30.2346 37.5205 30.5224 37.5205 31.1338V32.3986H37.1494V32.3966ZM37.1292 31.5674C36.9153 31.4515 36.7822 31.3955 36.5482 31.3955C36.2718 31.3955 36.0943 31.5174 36.0943 31.7552C36.0943 31.987 36.2738 32.1189 36.5885 32.1189C36.8125 32.1189 36.996 32.007 37.1292 31.8551V31.5674Z" fill="#DE1388"/>
<path d="M39.7279 32.3965V32.1787C39.5605 32.3505 39.3144 32.4365 39.0441 32.4365C38.4268 32.4365 37.9971 31.9909 37.9971 31.3555C37.9971 30.734 38.4873 30.2325 39.0542 30.2325C39.3346 30.2325 39.5444 30.3144 39.7078 30.4443V28.6899H40.1112V32.3945H39.7279V32.3965ZM39.7078 30.8559C39.5746 30.6941 39.3608 30.5682 39.0844 30.5682C38.6809 30.5682 38.3945 30.8919 38.3945 31.3475C38.3945 31.7731 38.6608 32.1048 39.1086 32.1048C39.3689 32.1048 39.5625 31.9929 39.7058 31.827V30.8559H39.7078Z" fill="#DE1388"/>
<path d="M42.5919 31.4575H41.0204C41.0668 31.8212 41.2705 32.0949 41.8213 32.0949C42.0008 32.0949 42.2147 32.0449 42.4124 31.979L42.483 32.3167C42.2389 32.3866 41.9827 32.4386 41.7829 32.4386C41.0123 32.4386 40.625 31.959 40.625 31.3476C40.625 30.7661 41.0022 30.2346 41.6659 30.2346C42.2732 30.2346 42.606 30.6802 42.606 31.2557C42.606 31.3256 42.606 31.3816 42.5919 31.4575ZM42.2348 31.1538C42.2086 30.8261 42.021 30.5683 41.6438 30.5683C41.2968 30.5683 41.0829 30.7901 41.0365 31.1538H42.2348Z" fill="#DE1388"/>
<path d="M43.4894 30.946V32.3967H43.0859V30.2726H43.4692V30.6263C43.673 30.3625 43.9534 30.2327 44.2338 30.2327V30.6223C43.9231 30.6223 43.6387 30.7342 43.4894 30.946Z" fill="#DE1388"/>
<path d="M47.7729 32.4526H47.7063L47.0527 31.012L46.389 32.4526H46.3224L45.5518 30.2746H46.0016L46.4192 31.6594L47.0103 30.2646H47.0769L47.7103 31.6594L48.1037 30.2746H48.5334L47.7729 32.4526Z" fill="#DE1388"/>
<path d="M49.096 29.793C48.9528 29.793 48.8398 29.6771 48.8398 29.5412C48.8398 29.3993 48.9528 29.2834 49.096 29.2834C49.2393 29.2834 49.3502 29.3993 49.3502 29.5412C49.3502 29.6771 49.2393 29.793 49.096 29.793ZM48.8903 32.3966V30.2725H49.2937V32.3966H48.8903Z" fill="#DE1388"/>
<path d="M49.9375 32.3967V28.6921H50.341V32.3967H49.9375Z" fill="#DE1388"/>
<path d="M50.9785 32.3967V28.6921H51.382V32.3967H50.9785Z" fill="#DE1388"/>
<path d="M52.2289 29.793C52.0856 29.793 51.9727 29.6771 51.9727 29.5412C51.9727 29.3993 52.0856 29.2834 52.2289 29.2834C52.3721 29.2834 52.483 29.3993 52.483 29.5412C52.4851 29.6771 52.3721 29.793 52.2289 29.793ZM52.0251 32.3966V30.2725H52.4286V32.3966H52.0251Z" fill="#DE1388"/>
<path d="M2.11219 23.8506C2.05167 23.8346 1.97501 23.8246 1.91247 23.8246C1.53523 23.8246 1.40209 23.9805 1.40209 24.426V25.0774H2.03553V25.4211H1.40209V27.2015H1.00467V25.4211H0.673828V25.3712L1.00467 25.0435V24.482C1.00467 23.8246 1.28105 23.4609 1.8459 23.4609C1.97299 23.4609 2.05974 23.4709 2.17674 23.5069L2.11219 23.8506Z" fill="#DE1388"/>
<path d="M3.84888 27.2014V26.9037C3.6653 27.0795 3.35866 27.2414 3.07825 27.2414C2.57795 27.2414 2.33789 26.9437 2.33789 26.5181V25.0774H2.74136V26.4122C2.74136 26.7399 2.88459 26.9077 3.19122 26.9077C3.43129 26.9077 3.6653 26.7558 3.8287 26.584V25.0774H4.23217V27.2014H3.84888Z" fill="#DE1388"/>
<path d="M6.32089 27.2016V25.8668C6.32089 25.5391 6.19783 25.3713 5.88716 25.3713C5.6471 25.3713 5.39695 25.5371 5.23355 25.715V27.2016H4.83008V25.0776H5.21337V25.4013C5.4373 25.1795 5.7177 25.0376 6.00417 25.0376C6.49841 25.0376 6.72436 25.3353 6.72436 25.7609V27.2016H6.32089Z" fill="#DE1388"/>
<path d="M8.94962 27.2014V26.9836C8.78218 27.1555 8.53607 27.2414 8.26575 27.2414C7.64844 27.2414 7.21875 26.7958 7.21875 26.1604C7.21875 25.539 7.70896 25.0374 8.27583 25.0374C8.55624 25.0374 8.76605 25.1194 8.92945 25.2492V23.4949H9.33292V27.1994H8.94962V27.2014ZM8.92945 25.6609C8.79631 25.499 8.58247 25.3731 8.30609 25.3731C7.90263 25.3731 7.61617 25.6968 7.61617 26.1524C7.61617 26.578 7.88245 26.9097 8.3303 26.9097C8.59054 26.9097 8.7842 26.7978 8.92743 26.632V25.6609H8.92945Z" fill="#DE1388"/>
<path d="M11.2509 27.2015V26.9798C11.0774 27.1456 10.8535 27.2435 10.5872 27.2435C10.1636 27.2435 9.81055 26.9957 9.81055 26.5601C9.81055 26.1765 10.1414 25.8988 10.5812 25.8988C10.8777 25.8988 11.0452 25.9647 11.2287 26.0406V25.9147C11.2287 25.5551 11.0613 25.3892 10.6679 25.3892C10.4642 25.3892 10.2544 25.4352 10.1071 25.4951L10.0405 25.1514C10.2402 25.0915 10.5045 25.0396 10.7183 25.0396C11.3316 25.0396 11.6221 25.3273 11.6221 25.9387V27.2035H11.2509V27.2015ZM11.2308 26.3723C11.0169 26.2564 10.8838 26.2005 10.6498 26.2005C10.3734 26.2005 10.1959 26.3224 10.1959 26.5601C10.1959 26.7919 10.3754 26.9238 10.6901 26.9238C10.914 26.9238 11.0976 26.8119 11.2308 26.66V26.3723Z" fill="#DE1388"/>
<path d="M13.2566 27.2435C12.5788 27.2435 12.0986 26.764 12.0986 26.1525C12.0986 25.5411 12.5788 25.0396 13.2566 25.0396C13.5229 25.0396 13.7932 25.1355 13.9869 25.2573L13.8235 25.5611C13.65 25.4592 13.4402 25.3852 13.2203 25.3852C12.8027 25.3852 12.486 25.669 12.486 26.1525C12.486 26.6121 12.8531 26.9018 13.2465 26.9018C13.4664 26.9018 13.6762 26.8259 13.8497 26.724L13.9869 27.0277C13.7932 27.1476 13.5229 27.2435 13.2566 27.2435Z" fill="#DE1388"/>
<path d="M14.6195 24.5979C14.4763 24.5979 14.3633 24.482 14.3633 24.3461C14.3633 24.2043 14.4763 24.0884 14.6195 24.0884C14.7627 24.0884 14.8757 24.2043 14.8757 24.3461C14.8757 24.482 14.7627 24.5979 14.6195 24.5979ZM14.4157 27.2015V25.0775H14.8192V27.2015H14.4157Z" fill="#DE1388"/>
<path d="M16.4477 27.2433C15.7941 27.2433 15.3604 26.7478 15.3604 26.1424C15.3604 25.5349 15.7941 25.0394 16.4477 25.0394C17.1013 25.0394 17.529 25.5349 17.529 26.1424C17.529 26.7478 17.1013 27.2433 16.4477 27.2433ZM16.4477 25.3631C16.0341 25.3631 15.7578 25.6768 15.7578 26.1424C15.7578 26.6079 16.0341 26.9216 16.4477 26.9216C16.8552 26.9216 17.1316 26.6079 17.1316 26.1424C17.1316 25.6748 16.8552 25.3631 16.4477 25.3631ZM16.2742 24.8056L16.1572 24.5838L17.0509 23.9524L17.2506 24.356L16.2742 24.8056Z" fill="#DE1388"/>
<path d="M19.5357 27.2016V25.8668C19.5357 25.5391 19.4127 25.3713 19.102 25.3713C18.8619 25.3713 18.6118 25.5371 18.4484 25.715V27.2016H18.0449V25.0776H18.4282V25.4013C18.6521 25.1795 18.9326 25.0376 19.219 25.0376C19.7133 25.0376 19.9392 25.3353 19.9392 25.7609V27.2016H19.5357Z" fill="#DE1388"/>
<path d="M3.38936 32.3967V31.036C3.38936 30.7422 3.28244 30.5764 3.00203 30.5764C2.76196 30.5764 2.54813 30.7183 2.3585 30.9141V32.3947H1.95503V31.0599C1.95503 30.7323 1.8582 30.5644 1.55156 30.5644C1.29738 30.5644 1.07143 30.7362 0.918116 30.9241V32.3947H0.514648V30.2707H0.897943V30.5944C1.11178 30.3926 1.37807 30.2307 1.68874 30.2307C2.02563 30.2307 2.17895 30.3966 2.26973 30.6243C2.47954 30.3866 2.79021 30.2407 3.12307 30.2407C3.57293 30.2407 3.7908 30.5144 3.7908 30.964V32.3947H3.38936V32.3967Z" fill="#DE1388"/>
<path d="M5.69136 32.3966V32.1748C5.51786 32.3407 5.29394 32.4386 5.02765 32.4386C4.60401 32.4386 4.25098 32.1908 4.25098 31.7552C4.25098 31.3716 4.58182 31.0938 5.0216 31.0938C5.31815 31.0938 5.48559 31.1598 5.66917 31.2357V31.1098C5.66917 30.7501 5.50173 30.5843 5.10834 30.5843C4.90459 30.5843 4.69479 30.6303 4.54753 30.6902L4.48095 30.3465C4.68067 30.2866 4.94494 30.2346 5.15878 30.2346C5.77205 30.2346 6.06255 30.5224 6.06255 31.1338V32.3986H5.69136V32.3966ZM5.67118 31.5674C5.45735 31.4515 5.3242 31.3955 5.09019 31.3955C4.81381 31.3955 4.63629 31.5174 4.63629 31.7552C4.63629 31.987 4.81583 32.1189 5.13054 32.1189C5.35446 32.1189 5.53804 32.007 5.67118 31.8551V31.5674Z" fill="#DE1388"/>
<path d="M7.02456 30.946V32.3967H6.62109V30.2726H7.00439V30.6263C7.20814 30.3625 7.48855 30.2327 7.76896 30.2327V30.6223C7.45829 30.6223 7.17183 30.7342 7.02456 30.946Z" fill="#DE1388"/>
<path d="M8.23517 30.0009L8.11816 29.7791L9.01184 29.1477L9.21156 29.5513L8.23517 30.0009ZM8.20289 32.3967V30.2727H8.60636V32.3967H8.20289Z" fill="#DE1388"/>
<path d="M10.5673 32.3966V32.1748C10.3938 32.3407 10.1699 32.4386 9.90363 32.4386C9.47999 32.4386 9.12695 32.1908 9.12695 31.7552C9.12695 31.3716 9.4578 31.0938 9.89757 31.0938C10.1941 31.0938 10.3616 31.1598 10.5451 31.2357V31.1098C10.5451 30.7501 10.3777 30.5843 9.98432 30.5843C9.78057 30.5843 9.57076 30.6303 9.4235 30.6902L9.35693 30.3465C9.55665 30.2866 9.82092 30.2346 10.0348 30.2346C10.648 30.2346 10.9385 30.5224 10.9385 31.1338V32.3986H10.5673V32.3966ZM10.5472 31.5674C10.3333 31.4515 10.2002 31.3955 9.96616 31.3955C9.68979 31.3955 9.51226 31.5174 9.51226 31.7552C9.51226 31.987 9.69181 32.1189 10.0065 32.1189C10.2304 32.1189 10.414 32.007 10.5472 31.8551V31.5674Z" fill="#DE1388"/>
<path d="M13.1085 32.8621C13.1085 33.3277 12.8947 33.5295 12.5073 33.5295C12.4004 33.5295 12.2834 33.5135 12.1543 33.4896L12.2007 33.1559C12.2673 33.1659 12.3177 33.1718 12.3802 33.1718C12.6042 33.1718 12.707 33.0899 12.707 32.8941V30.2745H13.1105V32.8621H13.1085ZM12.9088 29.793C12.7656 29.793 12.6526 29.6771 12.6526 29.5412C12.6526 29.3993 12.7656 29.2834 12.9088 29.2834C13.052 29.2834 13.163 29.3993 13.163 29.5412C13.165 29.6771 13.052 29.793 12.9088 29.793Z" fill="#DE1388"/>
<path d="M14.727 32.4386C14.0734 32.4386 13.6396 31.943 13.6396 31.3376C13.6396 30.7302 14.0734 30.2346 14.727 30.2346C15.3806 30.2346 15.8083 30.7302 15.8083 31.3376C15.8083 31.943 15.3806 32.4386 14.727 32.4386ZM14.727 30.5583C14.3134 30.5583 14.0371 30.872 14.0371 31.3376C14.0371 31.8032 14.3134 32.1169 14.727 32.1169C15.1345 32.1169 15.4109 31.8032 15.4109 31.3376C15.4109 30.87 15.1345 30.5583 14.727 30.5583Z" fill="#DE1388"/>
<path d="M16.9423 32.4386C16.6458 32.4386 16.3916 32.3327 16.1777 32.1608L16.3815 31.8771C16.5449 32.023 16.7587 32.1149 16.9221 32.1149C17.1723 32.1149 17.2893 31.999 17.2893 31.8112C17.2893 31.3975 16.2887 31.5034 16.2887 30.866C16.2887 30.5323 16.5651 30.2346 17.019 30.2346C17.2429 30.2346 17.4789 30.3305 17.6423 30.4364L17.4628 30.7342C17.3256 30.6382 17.1763 30.5563 17.0028 30.5563C16.7587 30.5563 16.6558 30.6782 16.6558 30.8301C16.6558 31.1897 17.6504 31.1138 17.6504 31.7712C17.6524 32.1189 17.3659 32.4386 16.9423 32.4386Z" fill="#DE1388"/>
<path d="M20.0206 31.4576H18.4491C18.4955 31.8212 18.6993 32.095 19.25 32.095C19.4295 32.095 19.6434 32.045 19.8411 31.9791L19.9117 32.3168C19.6676 32.3867 19.4114 32.4387 19.2117 32.4387C18.441 32.4387 18.0537 31.9591 18.0537 31.3477C18.0537 30.7662 18.431 30.2347 19.0947 30.2347C19.7019 30.2347 20.0347 30.6803 20.0347 31.2558C20.0368 31.3257 20.0368 31.3816 20.0206 31.4576ZM19.6635 31.1539C19.6373 30.8262 19.4497 30.5684 19.0725 30.5684C18.7255 30.5684 18.5116 30.7902 18.4652 31.1539H19.6635ZM18.9191 30.0009L18.8021 29.7791L19.6958 29.1477L19.8955 29.5513L18.9191 30.0009Z" fill="#DE1388"/>
<path d="M50.0644 6.4767C46.0358 -0.908457 36.3647 -0.506828 31.6663 2.4864C26.9679 5.47963 25.7878 10.467 25.7878 10.467C25.7878 10.467 24.6823 5.47963 19.9819 2.4864C15.2815 -0.506828 5.61237 -0.906459 1.58375 6.4767C1.58375 6.4767 0.173632 8.5368 1.58375 9.9355C2.99185 11.3302 4.73887 9.9355 5.2432 9.80362C5.2432 9.80362 3.60109 12.3952 5.2432 13.8579C6.88733 15.3205 9.17095 13.8579 9.17095 13.8579C9.17095 13.8579 8.29946 15.9839 10.7162 17.3846C13.133 18.7813 14.6097 16.6533 14.6097 16.6533C14.6097 16.6533 14.6763 18.8013 17.6982 19.3568C18.4931 19.5026 19.2435 19.4807 19.9153 19.3688V9.402L25.7878 12.8788L31.5755 9.402V19.3408C32.2876 19.4747 33.0925 19.5126 33.9499 19.3548C36.9719 18.8013 37.0384 16.6513 37.0384 16.6513C37.0384 16.6513 38.5151 18.7793 40.9319 17.3826C43.3487 15.9839 42.4772 13.8559 42.4772 13.8559C42.4772 13.8559 44.7608 15.3185 46.407 13.8559C48.0511 12.3952 46.407 9.80163 46.407 9.80163C46.9093 9.9335 48.6563 11.3282 50.0644 9.9335C51.4765 8.5368 50.0644 6.4767 50.0644 6.4767Z" fill="#DE1388"/>
<path d="M27.8392 25.3652L25.7876 13.7859L23.7521 25.6349H23.7642C23.7541 25.7188 23.748 25.8028 23.748 25.8907C23.748 27.0996 24.6801 28.0807 25.8259 28.0807C26.9738 28.0807 27.9038 27.0996 27.9038 25.8907C27.9017 25.7088 27.8775 25.535 27.8392 25.3652Z" fill="#DE1388"/>
<path d="M25.8239 4.35475C26.8511 4.35475 27.6838 3.52993 27.6838 2.51246C27.6838 1.49499 26.8511 0.670166 25.8239 0.670166C24.7966 0.670166 23.9639 1.49499 23.9639 2.51246C23.9639 3.52993 24.7966 4.35475 25.8239 4.35475Z" fill="#DE1388"/>
</svg>
