<svg width="160" height="86" viewBox="0 0 160 86" fill="none" xmlns="http://www.w3.org/2000/svg">
<path d="M89.239 59.3137C88.7692 59.3137 88.3666 59.1451 88.0278 58.8714L88.3506 58.4195C88.6095 58.6518 88.9482 58.7982 89.2071 58.7982C89.6034 58.7982 89.7887 58.6136 89.7887 58.3145C89.7887 57.6558 88.2036 57.8244 88.2036 56.8093C88.2036 56.2779 88.6414 55.8037 89.3605 55.8037C89.7152 55.8037 90.0891 55.9565 90.348 56.1251L90.0635 56.5993C89.8462 56.4465 89.6097 56.3161 89.3349 56.3161C88.9482 56.3161 88.7852 56.5102 88.7852 56.752C88.7852 57.3248 90.3607 57.2039 90.3607 58.2509C90.3607 58.8046 89.9101 59.3137 89.239 59.3137Z" fill="white"/>
<path d="M91.2523 55.4314L91.0669 55.0782L92.4826 54.0726L92.799 54.7154L91.2523 55.4314ZM91.2043 59.247V55.8642H91.8435V59.247H91.2043Z" fill="white"/>
<path d="M95.2152 59.2469V57.1212C95.2152 56.5993 95.0203 56.332 94.5281 56.332C94.1478 56.332 93.7515 56.5961 93.4927 56.8793V59.2469H92.8535V55.8642H93.4607V56.3797C93.8155 56.0265 94.2597 55.8005 94.7135 55.8005C95.4964 55.8005 95.8544 56.2747 95.8544 56.9525V59.2469H95.2152Z" fill="white"/>
<path d="M99.3792 59.2469V58.9001C99.1139 59.1737 98.724 59.3106 98.2958 59.3106C97.3179 59.3106 96.6372 58.6009 96.6372 57.589C96.6372 56.5993 97.4138 55.8006 98.3118 55.8006C98.756 55.8006 99.0884 55.931 99.3472 56.1379V53.3439H99.9864V59.2437H99.3792V59.2469ZM99.3472 56.7934C99.1363 56.5357 98.7976 56.3352 98.3597 56.3352C97.7206 56.3352 97.2668 56.8507 97.2668 57.5762C97.2668 58.2541 97.6886 58.7823 98.3981 58.7823C98.8103 58.7823 99.1171 58.6041 99.344 58.34V56.7934H99.3472Z" fill="white"/>
<path d="M101.572 56.9366V59.2469H100.933V55.8642H101.54V56.4274C101.863 56.0074 102.307 55.8005 102.751 55.8005V56.4211C102.259 56.4211 101.805 56.5993 101.572 56.9366Z" fill="white"/>
<path d="M104.879 59.3137C103.844 59.3137 103.157 58.5245 103.157 57.5603C103.157 56.5929 103.844 55.8037 104.879 55.8037C105.915 55.8037 106.592 56.5929 106.592 57.5603C106.592 58.5245 105.911 59.3137 104.879 59.3137ZM104.879 56.3192C104.224 56.3192 103.786 56.8188 103.786 57.5603C103.786 58.3018 104.224 58.8014 104.879 58.8014C105.525 58.8014 105.963 58.3018 105.963 57.5603C105.963 56.8157 105.525 56.3192 104.879 56.3192Z" fill="white"/>
<path d="M111.961 59.2469V57.0798C111.961 56.612 111.792 56.3479 111.348 56.3479C110.967 56.3479 110.629 56.5738 110.328 56.8857V59.2437H109.689V57.118C109.689 56.5961 109.536 56.3288 109.05 56.3288C108.644 56.3288 108.289 56.6025 108.046 56.9016V59.2437H107.407V55.861H108.014V56.3765C108.353 56.0551 108.775 55.7974 109.267 55.7974C109.801 55.7974 110.044 56.0615 110.188 56.4243C110.52 56.0456 111.012 55.8133 111.539 55.8133C112.252 55.8133 112.597 56.2492 112.597 56.9652V59.2437H111.961V59.2469Z" fill="white"/>
<path d="M116.499 57.7512H114.01C114.083 58.3304 114.406 58.7664 115.278 58.7664C115.563 58.7664 115.902 58.6868 116.215 58.5818L116.327 59.1196C115.94 59.231 115.534 59.3137 115.218 59.3137C113.997 59.3137 113.383 58.55 113.383 57.5762C113.383 56.6502 113.981 55.8037 115.032 55.8037C115.994 55.8037 116.522 56.5134 116.522 57.4298C116.522 57.5412 116.522 57.6303 116.499 57.7512ZM115.934 57.2675C115.892 56.7457 115.595 56.3351 114.997 56.3351C114.447 56.3351 114.109 56.6884 114.035 57.2675H115.934Z" fill="white"/>
<path d="M89.8845 67.5875C89.5201 67.5875 89.1878 67.4984 88.897 67.3393V69.2646H88.2578V64.1443H88.865V64.4817C89.1398 64.2398 89.5201 64.0807 90.0059 64.0807C90.9039 64.0807 91.607 64.7903 91.607 65.8118C91.607 66.7983 90.8943 67.5875 89.8845 67.5875ZM89.8845 64.6089C89.4562 64.6089 89.1398 64.7617 88.8906 65.0099V66.6774C89.1015 66.9192 89.4722 67.0624 89.8685 67.0624C90.5236 67.0624 90.9774 66.5406 90.9774 65.815C90.9774 65.1467 90.5556 64.6089 89.8845 64.6089Z" fill="white"/>
<path d="M93.0644 65.2104V67.5207H92.4253V64.138H93.0325V64.7012C93.3553 64.2812 93.7995 64.0743 94.2437 64.0743V64.6949C93.7515 64.6949 93.2977 64.8731 93.0644 65.2104Z" fill="white"/>
<path d="M96.8707 67.5207V67.1675C96.5958 67.4316 96.2411 67.5875 95.8192 67.5875C95.1481 67.5875 94.5889 67.1929 94.5889 66.4992C94.5889 65.8882 95.113 65.4459 95.8096 65.4459C96.2794 65.4459 96.5447 65.5509 96.8355 65.6718V65.4713C96.8355 64.8985 96.5703 64.6344 95.9471 64.6344C95.6243 64.6344 95.2919 64.7076 95.0586 64.8031L94.9532 64.2557C95.2696 64.1603 95.6882 64.0775 96.027 64.0775C96.9985 64.0775 97.4587 64.5358 97.4587 65.5095V67.5239H96.8707V67.5207ZM96.8387 66.2001C96.4999 66.0155 96.289 65.9264 95.9183 65.9264C95.4805 65.9264 95.1993 66.1205 95.1993 66.4992C95.1993 66.8683 95.4837 67.0784 95.9822 67.0784C96.337 67.0784 96.6278 66.9002 96.8387 66.6583V66.2001Z" fill="white"/>
<path d="M100.955 67.5207V67.1739C100.69 67.4475 100.3 67.5844 99.8715 67.5844C98.8936 67.5844 98.2129 66.8747 98.2129 65.8628C98.2129 64.8731 98.9895 64.0744 99.8875 64.0744C100.332 64.0744 100.664 64.2048 100.923 64.4117V61.6177H101.562V67.5175H100.955V67.5207ZM100.923 65.0672C100.712 64.8095 100.373 64.609 99.9354 64.609C99.2963 64.609 98.8425 65.1245 98.8425 65.85C98.8425 66.5279 99.2643 67.0561 99.9738 67.0561C100.386 67.0561 100.693 66.8779 100.92 66.6138V65.0672H100.923Z" fill="white"/>
<path d="M105.493 66.025H103.003C103.077 66.6042 103.4 67.0402 104.272 67.0402C104.556 67.0402 104.895 66.9606 105.208 66.8556L105.32 67.3934C104.934 67.5048 104.528 67.5875 104.211 67.5875C102.991 67.5875 102.377 66.8238 102.377 65.85C102.377 64.924 102.975 64.0775 104.026 64.0775C104.988 64.0775 105.515 64.7872 105.515 65.7036C105.515 65.815 105.515 65.9041 105.493 66.025ZM104.927 65.5413C104.886 65.0195 104.588 64.6089 103.991 64.6089C103.441 64.6089 103.102 64.9622 103.029 65.5413H104.927Z" fill="white"/>
<path d="M106.915 65.2104V67.5207H106.276V64.138H106.883V64.7012C107.206 64.2812 107.65 64.0743 108.094 64.0743V64.6949C107.602 64.6949 107.152 64.8731 106.915 65.2104Z" fill="white"/>
<path d="M113.7 67.6098H113.594L112.559 65.3154L111.507 67.6098H111.402L110.181 64.1412H110.894L111.555 66.3465L112.492 64.1252H112.597L113.601 66.3465L114.224 64.1412H114.905L113.7 67.6098Z" fill="white"/>
<path d="M115.796 63.3743C115.569 63.3743 115.39 63.1898 115.39 62.9734C115.39 62.7474 115.569 62.5629 115.796 62.5629C116.023 62.5629 116.199 62.7474 116.199 62.9734C116.199 63.1898 116.023 63.3743 115.796 63.3743ZM115.47 67.5208V64.1381H116.109V67.5208H115.47Z" fill="white"/>
<path d="M117.128 67.5207V61.6208H117.768V67.5207H117.128Z" fill="white"/>
<path d="M118.778 67.5207V61.6208H119.417V67.5207H118.778Z" fill="white"/>
<path d="M120.759 63.3743C120.532 63.3743 120.353 63.1898 120.353 62.9734C120.353 62.7474 120.532 62.5629 120.759 62.5629C120.986 62.5629 121.162 62.7474 121.162 62.9734C121.165 63.1898 120.986 63.3743 120.759 63.3743ZM120.436 67.5208V64.1381H121.075V67.5208H120.436Z" fill="white"/>
<path d="M41.366 53.9103C41.2701 53.8849 41.1487 53.869 41.0496 53.869C40.452 53.869 40.2411 54.1172 40.2411 54.8268V55.8642H41.2446V56.4116H40.2411V59.2469H39.6115V56.4116H39.0874V56.332L39.6115 55.8101V54.9159C39.6115 53.869 40.0493 53.2898 40.9442 53.2898C41.1455 53.2898 41.2829 53.3057 41.4683 53.363L41.366 53.9103Z" fill="white"/>
<path d="M44.1178 59.247V58.7728C43.8269 59.0529 43.3412 59.3106 42.897 59.3106C42.1044 59.3106 41.7241 58.8365 41.7241 58.1586V55.8643H42.3633V57.99C42.3633 58.5119 42.5902 58.7792 43.0759 58.7792C43.4562 58.7792 43.8269 58.5373 44.0858 58.2637V55.8643H44.725V59.247H44.1178Z" fill="white"/>
<path d="M48.0326 59.2469V57.1212C48.0326 56.5993 47.8376 56.332 47.3455 56.332C46.9652 56.332 46.5689 56.5961 46.3101 56.8793V59.2469H45.6709V55.8642H46.2781V56.3797C46.6328 56.0265 47.077 55.8005 47.5308 55.8005C48.3138 55.8005 48.6717 56.2747 48.6717 56.9525V59.2469H48.0326Z" fill="white"/>
<path d="M52.1966 59.2469V58.9001C51.9313 59.1737 51.5414 59.3106 51.1132 59.3106C50.1353 59.3106 49.4546 58.6009 49.4546 57.589C49.4546 56.5993 50.2312 55.8006 51.1292 55.8006C51.5734 55.8006 51.9058 55.931 52.1646 56.1379V53.3439H52.8038V59.2437H52.1966V59.2469ZM52.1646 56.7934C51.9537 56.5357 51.6149 56.3352 51.1771 56.3352C50.538 56.3352 50.0842 56.8507 50.0842 57.5762C50.0842 58.2541 50.506 58.7823 51.2155 58.7823C51.6277 58.7823 51.9345 58.6041 52.1614 58.34V56.7934H52.1646Z" fill="white"/>
<path d="M55.8428 59.2469V58.8937C55.568 59.1578 55.2133 59.3137 54.7914 59.3137C54.1203 59.3137 53.561 58.9191 53.561 58.2254C53.561 57.6144 54.0851 57.1721 54.7818 57.1721C55.2516 57.1721 55.5169 57.2771 55.8077 57.398V57.1975C55.8077 56.6247 55.5424 56.3606 54.9192 56.3606C54.5965 56.3606 54.2641 56.4338 54.0308 56.5293L53.9254 55.9819C54.2417 55.8864 54.6604 55.8037 54.9991 55.8037C55.9707 55.8037 56.4308 56.262 56.4308 57.2357V59.2501H55.8428V59.2469ZM55.8109 57.9263C55.4721 57.7417 55.2612 57.6526 54.8905 57.6526C54.4527 57.6526 54.1714 57.8467 54.1714 58.2254C54.1714 58.5945 54.4559 58.8046 54.9544 58.8046C55.3091 58.8046 55.5999 58.6264 55.8109 58.3845V57.9263Z" fill="white"/>
<path d="M59.0194 59.3137C57.9457 59.3137 57.1851 58.55 57.1851 57.5762C57.1851 56.6025 57.9457 55.8037 59.0194 55.8037C59.4413 55.8037 59.8695 55.9565 60.1763 56.1506L59.9175 56.6343C59.6426 56.472 59.3103 56.3542 58.9619 56.3542C58.3004 56.3542 57.7986 56.8061 57.7986 57.5762C57.7986 58.3081 58.3803 58.7696 59.0035 58.7696C59.3518 58.7696 59.6842 58.6486 59.959 58.4863L60.1763 58.97C59.8695 59.161 59.4413 59.3137 59.0194 59.3137Z" fill="white"/>
<path d="M61.1798 55.1005C60.9529 55.1005 60.7739 54.916 60.7739 54.6996C60.7739 54.4736 60.9529 54.2891 61.1798 54.2891C61.4067 54.2891 61.5857 54.4736 61.5857 54.6996C61.5857 54.916 61.4067 55.1005 61.1798 55.1005ZM60.857 59.247V55.8643H61.4962V59.247H60.857Z" fill="white"/>
<path d="M64.0751 59.3138C63.0396 59.3138 62.3525 58.5246 62.3525 57.5604C62.3525 56.593 63.0396 55.8038 64.0751 55.8038C65.1105 55.8038 65.788 56.593 65.788 57.5604C65.788 58.5246 65.1105 59.3138 64.0751 59.3138ZM64.0751 56.3193C63.4199 56.3193 62.9821 56.8189 62.9821 57.5604C62.9821 58.3018 63.4199 58.8014 64.0751 58.8014C64.7206 58.8014 65.1584 58.3018 65.1584 57.5604C65.1584 56.8157 64.7206 56.3193 64.0751 56.3193ZM63.8002 55.4314L63.6149 55.0782L65.0306 54.0726L65.347 54.7154L63.8002 55.4314Z" fill="white"/>
<path d="M68.9681 59.2469V57.1212C68.9681 56.5993 68.7732 56.332 68.281 56.332C67.9007 56.332 67.5045 56.5961 67.2456 56.8793V59.2469H66.6064V55.8642H67.2136V56.3797C67.5684 56.0265 68.0126 55.8005 68.4664 55.8005C69.2494 55.8005 69.6073 56.2747 69.6073 56.9525V59.2469H68.9681Z" fill="white"/>
<path d="M43.389 67.5207V65.3536C43.389 64.8858 43.2196 64.6217 42.7754 64.6217C42.3951 64.6217 42.0563 64.8476 41.7559 65.1595V67.5175H41.1168V65.3918C41.1168 64.8699 40.9634 64.6026 40.4776 64.6026C40.0749 64.6026 39.717 64.8763 39.4741 65.1754V67.5175H38.835V64.1348H39.4422V64.6503C39.7809 64.3289 40.2028 64.0712 40.6949 64.0712C41.2286 64.0712 41.4715 64.3353 41.6153 64.6981C41.9477 64.3194 42.4398 64.0871 42.9671 64.0871C43.6798 64.0871 44.0249 64.523 44.0249 65.239V67.5175H43.389V67.5207Z" fill="white"/>
<path d="M47.0352 67.5208V67.1676C46.7604 67.4317 46.4056 67.5876 45.9838 67.5876C45.3127 67.5876 44.7534 67.193 44.7534 66.4993C44.7534 65.8883 45.2775 65.446 45.9742 65.446C46.444 65.446 46.7092 65.551 47.0001 65.6719V65.4715C47.0001 64.8987 46.7348 64.6345 46.1116 64.6345C45.7889 64.6345 45.4565 64.7077 45.2232 64.8032L45.1177 64.2558C45.4341 64.1604 45.8528 64.0776 46.1915 64.0776C47.163 64.0776 47.6232 64.5359 47.6232 65.5096V67.524H47.0352V67.5208ZM47.0033 66.2002C46.6645 66.0156 46.4536 65.9265 46.0829 65.9265C45.645 65.9265 45.3638 66.1206 45.3638 66.4993C45.3638 66.8685 45.6482 67.0785 46.1468 67.0785C46.5015 67.0785 46.7923 66.9003 47.0033 66.6584V66.2002Z" fill="white"/>
<path d="M49.1479 65.2105V67.5208H48.5088V64.1381H49.116V64.7014C49.4388 64.2813 49.883 64.0745 50.3272 64.0745V64.695C49.835 64.695 49.3812 64.8732 49.1479 65.2105Z" fill="white"/>
<path d="M51.0652 63.7053L50.8799 63.352L52.2956 62.3464L52.612 62.9892L51.0652 63.7053ZM51.0141 67.5208V64.138H51.6533V67.5208H51.0141Z" fill="white"/>
<path d="M54.7593 67.5208V67.1676C54.4845 67.4317 54.1298 67.5876 53.7079 67.5876C53.0368 67.5876 52.4775 67.193 52.4775 66.4993C52.4775 65.8883 53.0016 65.446 53.6983 65.446C54.1681 65.446 54.4334 65.551 54.7242 65.6719V65.4715C54.7242 64.8987 54.4589 64.6345 53.8357 64.6345C53.513 64.6345 53.1806 64.7077 52.9473 64.8032L52.8419 64.2558C53.1582 64.1604 53.5769 64.0776 53.9156 64.0776C54.8872 64.0776 55.3473 64.5359 55.3473 65.5096V67.524H54.7593V67.5208ZM54.7274 66.2002C54.3886 66.0156 54.1777 65.9265 53.807 65.9265C53.3692 65.9265 53.0879 66.1206 53.0879 66.4993C53.0879 66.8685 53.3724 67.0785 53.8709 67.0785C54.2256 67.0785 54.5164 66.9003 54.7274 66.6584V66.2002Z" fill="white"/>
<path d="M58.786 68.2623C58.786 69.0037 58.4473 69.3251 57.8337 69.3251C57.6643 69.3251 57.4789 69.2997 57.2744 69.2615L57.3479 68.73C57.4534 68.746 57.5333 68.7555 57.6323 68.7555C57.9871 68.7555 58.1501 68.625 58.1501 68.3132V64.1413H58.7892V68.2623H58.786ZM58.4696 63.3743C58.2427 63.3743 58.0638 63.1898 58.0638 62.9734C58.0638 62.7474 58.2427 62.5629 58.4696 62.5629C58.6965 62.5629 58.8723 62.7474 58.8723 62.9734C58.8755 63.1898 58.6965 63.3743 58.4696 63.3743Z" fill="white"/>
<path d="M61.3495 67.5876C60.314 67.5876 59.627 66.7985 59.627 65.8342C59.627 64.8668 60.314 64.0776 61.3495 64.0776C62.3849 64.0776 63.0624 64.8668 63.0624 65.8342C63.0624 66.7985 62.3849 67.5876 61.3495 67.5876ZM61.3495 64.5932C60.6943 64.5932 60.2565 65.0928 60.2565 65.8342C60.2565 66.5757 60.6943 67.0753 61.3495 67.0753C61.995 67.0753 62.4328 66.5757 62.4328 65.8342C62.4328 65.0896 61.995 64.5932 61.3495 64.5932Z" fill="white"/>
<path d="M64.8582 67.5876C64.3884 67.5876 63.9857 67.419 63.647 67.1453L63.9697 66.6934C64.2286 66.9257 64.5674 67.0721 64.8262 67.0721C65.2225 67.0721 65.4078 66.8876 65.4078 66.5884C65.4078 65.9297 63.8227 66.0984 63.8227 65.0832C63.8227 64.5518 64.2606 64.0776 64.9796 64.0776C65.3343 64.0776 65.7082 64.2304 65.9671 64.399L65.6827 64.8732C65.4654 64.7204 65.2289 64.59 64.954 64.59C64.5674 64.59 64.4044 64.7841 64.4044 65.0259C64.4044 65.5987 65.9799 65.4778 65.9799 66.5248C65.9831 67.0785 65.5293 67.5876 64.8582 67.5876Z" fill="white"/>
<path d="M69.735 66.0251H67.2455C67.319 66.6043 67.6418 67.0402 68.5142 67.0402C68.7987 67.0402 69.1374 66.9607 69.4506 66.8557L69.5625 67.3935C69.1758 67.5048 68.7699 67.5876 68.4535 67.5876C67.2327 67.5876 66.6191 66.8238 66.6191 65.8501C66.6191 64.924 67.2167 64.0776 68.2682 64.0776C69.2301 64.0776 69.7574 64.7872 69.7574 65.7037C69.7606 65.8151 69.7606 65.9042 69.735 66.0251ZM69.1694 65.5414C69.1278 65.0195 68.8306 64.609 68.233 64.609C67.6833 64.609 67.3446 64.9622 67.2711 65.5414H69.1694ZM67.9901 63.7053L67.8048 63.352L69.2205 62.3464L69.5369 62.9892L67.9901 63.7053Z" fill="white"/>
<path d="M117.33 26.2407C110.948 14.4792 95.6274 15.1188 88.1844 19.8858C80.7415 24.6528 78.8719 32.5957 78.8719 32.5957C78.8719 32.5957 77.1207 24.6528 69.6745 19.8858C62.2283 15.1188 46.9109 14.4824 40.529 26.2407C40.529 26.2407 38.2951 29.5216 40.529 31.7492C42.7596 33.9704 45.5272 31.7492 46.3261 31.5392C46.3261 31.5392 43.7247 35.6665 46.3261 37.9959C48.9307 40.3253 52.5483 37.9959 52.5483 37.9959C52.5483 37.9959 51.1677 41.3818 54.9963 43.6126C58.8248 45.837 61.1641 42.4479 61.1641 42.4479C61.1641 42.4479 61.2696 45.8688 66.0569 46.7535C67.316 46.9858 68.5048 46.9508 69.569 46.7725V30.8995L78.8719 36.4366L88.0406 30.8995V46.728C89.1687 46.9412 90.4439 47.0017 91.8021 46.7503C96.5894 45.8688 96.6948 42.4447 96.6948 42.4447C96.6948 42.4447 99.0341 45.8338 102.863 43.6094C106.691 41.3818 105.311 37.9928 105.311 37.9928C105.311 37.9928 108.928 40.3221 111.536 37.9928C114.141 35.6665 111.536 31.536 111.536 31.536C112.332 31.746 115.099 33.9672 117.33 31.746C119.567 29.5216 117.33 26.2407 117.33 26.2407Z" fill="white"/>
<path d="M82.1222 56.3224L78.872 37.8813L75.6475 56.752H75.6667C75.6507 56.8857 75.6411 57.0193 75.6411 57.1593C75.6411 59.0846 77.1176 60.6471 78.9328 60.6471C80.7512 60.6471 82.2244 59.0846 82.2244 57.1593C82.2212 56.8698 82.1829 56.5929 82.1222 56.3224Z" fill="white"/>
<path d="M78.9294 22.8612C80.5567 22.8612 81.8759 21.5476 81.8759 19.9272C81.8759 18.3068 80.5567 16.9932 78.9294 16.9932C77.3021 16.9932 75.9829 18.3068 75.9829 19.9272C75.9829 21.5476 77.3021 22.8612 78.9294 22.8612Z" fill="white"/>
</svg>
